<svg width="32" height="32" viewBox="0 0 32 32" fill="none" xmlns="http://www.w3.org/2000/svg">
<path d="M16 10.5C14.9122 10.5 13.8488 10.8225 12.9443 11.4269C12.0399 12.0312 11.3349 12.8902 10.9186 13.8952C10.5023 14.9002 10.3934 16.0061 10.6056 17.073C10.8179 18.1399 11.3417 19.1199 12.1109 19.8891C12.8801 20.6583 13.8601 21.1821 14.927 21.3943C15.9939 21.6065 17.0997 21.4976 18.1047 21.0813C19.1097 20.665 19.9687 19.9601 20.573 19.0556C21.1774 18.1511 21.5 17.0878 21.5 16C21.4983 14.5418 20.9183 13.1438 19.8872 12.1127C18.8561 11.0816 17.4581 10.5016 16 10.5ZM16 18.5C15.5055 18.5 15.0222 18.3534 14.611 18.0787C14.1999 17.8039 13.8795 17.4135 13.6903 16.9567C13.501 16.4999 13.4515 15.9972 13.548 15.5123C13.6445 15.0273 13.8826 14.5818 14.2322 14.2322C14.5818 13.8826 15.0273 13.6445 15.5122 13.548C15.9972 13.4516 16.4999 13.5011 16.9567 13.6903C17.4135 13.8795 17.8039 14.1999 18.0786 14.6111C18.3533 15.0222 18.5 15.5055 18.5 16C18.5 16.663 18.2366 17.2989 17.7677 17.7677C17.2989 18.2366 16.663 18.5 16 18.5ZM25.6737 20.0875C25.2228 21.1536 24.5985 22.1377 23.8262 23C23.561 23.2965 23.1888 23.4756 22.7916 23.4977C22.3944 23.5199 22.0046 23.3833 21.7081 23.1181C21.4115 22.8529 21.2325 22.4807 21.2104 22.0835C21.1882 21.6863 21.3248 21.2965 21.59 21C22.8219 19.6259 23.5032 17.8454 23.5032 16C23.5032 14.1545 22.8219 12.374 21.59 11C21.3248 10.7034 21.1882 10.3137 21.2104 9.91645C21.2325 9.51922 21.4115 9.14707 21.7081 8.88185C22.0046 8.61664 22.3944 8.48008 22.7916 8.50224C23.1888 8.52439 23.561 8.70343 23.8262 8.99998C25.1523 10.4836 26.0299 12.3132 26.357 14.276C26.684 16.2387 26.4471 18.2541 25.6737 20.0875ZM10.41 21C10.6752 21.2965 10.8117 21.6863 10.7896 22.0835C10.7674 22.4807 10.5884 22.8529 10.2918 23.1181C9.9953 23.3833 9.60554 23.5199 9.20831 23.4977C8.81109 23.4756 8.43893 23.2965 8.17372 23C6.45033 21.0757 5.49739 18.5832 5.49739 16C5.49739 13.4167 6.45033 10.9243 8.17372 8.99998C8.43893 8.70343 8.81109 8.52439 9.20831 8.50224C9.60554 8.48008 9.9953 8.61664 10.2918 8.88185C10.5884 9.14707 10.7674 9.51922 10.7896 9.91645C10.8117 10.3137 10.6752 10.7034 10.41 11C9.17802 12.374 8.49671 14.1545 8.49671 16C8.49671 17.8454 9.17802 19.6259 10.41 21ZM31.5 16C31.5048 20.057 29.9141 23.9531 27.0712 26.8475C26.9354 26.9959 26.771 27.1155 26.588 27.1991C26.405 27.2828 26.207 27.3287 26.0058 27.3342C25.8047 27.3397 25.6045 27.3047 25.4171 27.2313C25.2298 27.1578 25.0591 27.0474 24.9153 26.9066C24.7715 26.7659 24.6575 26.5976 24.5801 26.4119C24.5027 26.2261 24.4634 26.0267 24.4647 25.8255C24.4659 25.6242 24.5077 25.4253 24.5874 25.2406C24.6671 25.0558 24.7832 24.889 24.9287 24.75C27.2226 22.4152 28.5079 19.2731 28.5079 16C28.5079 12.7269 27.2226 9.58472 24.9287 7.24998C24.6502 6.96586 24.496 6.58276 24.5 6.18495C24.504 5.78714 24.6659 5.4072 24.95 5.12873C25.2341 4.85025 25.6172 4.69604 26.015 4.70003C26.4128 4.70401 26.7927 4.86586 27.0712 5.14998C29.9147 8.04492 31.5055 11.9421 31.5 16ZM7.07122 24.75C7.34969 25.0341 7.5039 25.4172 7.49992 25.815C7.49593 26.2128 7.33408 26.5928 7.04997 26.8712C6.76585 27.1497 6.38275 27.3039 5.98494 27.2999C5.58713 27.2959 5.20719 27.1341 4.92872 26.85C2.08693 23.9545 0.494873 20.0595 0.494873 16.0025C0.494873 11.9455 2.08693 8.05044 4.92872 5.15498C5.21104 4.89266 5.5835 4.74908 5.96885 4.75399C6.3542 4.75891 6.72287 4.91196 6.99842 5.18139C7.27396 5.45082 7.43523 5.81597 7.44878 6.20111C7.46234 6.58626 7.32714 6.96184 7.07122 7.24998C4.77731 9.58472 3.49199 12.7269 3.49199 16C3.49199 19.2731 4.77731 22.4152 7.07122 24.75Z" fill="#1F1F1F"/>
</svg>
