<svg width="32" height="32" viewBox="0 0 32 32" fill="none" xmlns="http://www.w3.org/2000/svg">
<path d="M16 4C11.5817 4 8 6.91015 8 10.5C8 12.3565 8.88 14.0304 10.2929 15.2426C8.91015 16.1127 8 17.7005 8 19.5V20H4C4 17.7909 5.79086 16 8 16C6.34315 16 5 14.6569 5 13C5 11.3431 6.34315 10 8 10C8 7.23858 11.5817 5 16 5C20.4183 5 24 7.23858 24 10C25.6569 10 27 11.3431 27 13C27 14.6569 25.6569 16 24 16C26.2091 16 28 17.7909 28 20H24V19.5C24 17.7005 23.0899 16.1127 21.7071 15.2426C23.12 14.0304 24 12.3565 24 10.5C24 6.91015 20.4183 4 16 4Z" fill="#09637E"/>
<circle cx="8" cy="13" r="2.5" fill="#09637E"/>
<circle cx="24" cy="13" r="2.5" fill="#09637E"/>
<circle cx="16" cy="10" r="4" fill="#09637E"/>
<path d="M10 28V21C10 18.7909 12.6863 17 16 17C19.3137 17 22 18.7909 22 21V28H10Z" fill="#09637E"/>
<path d="M4 27V22C4 20.3431 5.79086 19 8 19C8.73 19 9.41 19.15 10 19.41V28H4V27Z" fill="#09637E"/>
<path d="M28 27V22C28 20.3431 26.2091 19 24 19C23.27 19 22.59 19.15 22 19.41V28H28V27Z" fill="#09637E"/>
</svg>
