<svg width="30" height="20" viewBox="0 0 30 20" fill="none" xmlns="http://www.w3.org/2000/svg">
<path d="M5.16699 5.08331C5.56263 5.08349 5.88379 5.40443 5.88379 5.80011V9.28351H9.36621C9.762 9.28351 10.083 9.60452 10.083 10.0003C10.0828 10.3959 9.76188 10.7161 9.36621 10.7161H5.88379V14.1995C5.88379 14.5952 5.56263 14.9161 5.16699 14.9163C4.7712 14.9163 4.4502 14.5953 4.4502 14.1995V10.7161H0.966797C0.571124 10.7161 0.250188 10.3959 0.25 10.0003C0.25 9.60452 0.571008 9.28351 0.966797 9.28351H4.4502V5.80011C4.4502 5.40432 4.7712 5.08331 5.16699 5.08331Z" fill="#09637E" stroke="#09637E" stroke-width="0.5"/>
<path d="M20.0902 10.9831C23.2268 10.9831 25.9722 12.1931 25.9722 14.8538C25.9722 16.2494 25.43 16.875 24.2906 16.875H15.8898C14.7436 16.875 14.2083 16.2494 14.2083 14.8538C14.2083 12.1931 16.9536 10.9831 20.0902 10.9831ZM20.0902 3.125C21.9296 3.125 23.4259 4.61688 23.4259 6.46625C23.4259 8.31563 21.9365 9.8075 20.0902 9.8075C18.244 9.8075 16.7546 8.30875 16.7546 6.46625C16.7546 4.62375 18.2508 3.125 20.0902 3.125Z" fill="#09637E"/>
</svg>
