<svg width="32" height="32" viewBox="0 0 32 32" fill="none" xmlns="http://www.w3.org/2000/svg">
<path d="M22.6667 7.99996V6.66663C22.6667 4.39996 20.9334 2.66663 18.6667 2.66663H13.3334C11.0667 2.66663 9.33342 4.39996 9.33342 6.66663V7.99996H2.66675V13.3333C2.66675 15.6 4.40008 17.3333 6.66675 17.3333H25.3334C27.6001 17.3333 29.3334 15.6 29.3334 13.3333V7.99996H22.6667ZM12.0001 6.66663C12.0001 5.86663 12.5334 5.33329 13.3334 5.33329H18.6667C19.4667 5.33329 20.0001 5.86663 20.0001 6.66663V7.99996H12.0001V6.66663ZM25.3334 18.6666C26.9334 18.6666 28.4001 18 29.3334 16.8V22.6666C29.3334 24.9333 27.6001 26.6666 25.3334 26.6666H6.66675C4.40008 26.6666 2.66675 24.9333 2.66675 22.6666V16.8C3.60008 18 5.06675 18.6666 6.66675 18.6666H25.3334Z" fill="#09637E"/>
</svg>
