<svg width="32" height="32" viewBox="0 0 32 32" fill="none" xmlns="http://www.w3.org/2000/svg">
<path d="M22.5 29C22.5 29.3978 22.342 29.7794 22.0607 30.0607C21.7794 30.342 21.3979 30.5 21 30.5H11C10.6022 30.5 10.2207 30.342 9.93939 30.0607C9.65808 29.7794 9.50005 29.3978 9.50005 29C9.50005 28.6022 9.65808 28.2207 9.93939 27.9394C10.2207 27.6581 10.6022 27.5 11 27.5H21C21.3979 27.5 21.7794 27.6581 22.0607 27.9394C22.342 28.2207 22.5 28.6022 22.5 29ZM27.5 13C27.5046 14.7428 27.1109 16.4635 26.349 18.0309C25.5871 19.5983 24.4771 20.9708 23.1038 22.0438C22.9178 22.1855 22.7667 22.3678 22.6621 22.5769C22.5574 22.786 22.502 23.0162 22.5 23.25V23.5C22.5 24.1631 22.2367 24.7989 21.7678 25.2678C21.299 25.7366 20.6631 26 20 26H12C11.337 26 10.7011 25.7366 10.2323 25.2678C9.76344 24.7989 9.50005 24.1631 9.50005 23.5V23.25C9.49977 23.0201 9.44665 22.7933 9.34478 22.5872C9.24292 22.3811 9.09503 22.2011 8.91255 22.0613C7.54301 20.9945 6.43404 19.6302 5.66958 18.0716C4.90512 16.513 4.50519 14.801 4.50005 13.065C4.4663 6.83627 9.50005 1.65002 15.7238 1.50002C17.2571 1.46318 18.7823 1.73342 20.2095 2.29483C21.6368 2.85624 22.9374 3.69748 24.0347 4.76905C25.132 5.84061 26.0039 7.12085 26.599 8.53441C27.1941 9.94797 27.5005 11.4663 27.5 13ZM24.5 13C24.5004 11.8662 24.2739 10.7438 23.8339 9.69886C23.3939 8.65391 22.7493 7.70756 21.938 6.9155C21.1267 6.12345 20.1652 5.50171 19.11 5.08687C18.0548 4.67204 16.9273 4.47251 15.7938 4.50002C11.195 4.61002 7.47505 8.44377 7.50005 13.0475C7.50433 14.3306 7.80026 15.5958 8.36547 16.7477C8.93067 17.8995 9.75036 18.9078 10.7625 19.6963C11.2725 20.0898 11.6916 20.5886 11.9914 21.1587C12.2913 21.7288 12.4647 22.3569 12.5 23H19.5125C19.5486 22.3556 19.7223 21.7264 20.022 21.1547C20.3217 20.5831 20.7405 20.0824 21.25 19.6863C22.2651 18.8928 23.0856 17.878 23.6488 16.7193C24.2121 15.5605 24.5032 14.2884 24.5 13ZM21.9913 12.335C21.8586 11.2126 21.4148 10.1497 20.71 9.2662C20.0051 8.3827 19.0674 7.7138 18.0025 7.33502C17.6304 7.21342 17.2254 7.24216 16.8741 7.41512C16.5228 7.58809 16.2531 7.89155 16.1225 8.2607C15.992 8.62985 16.0109 9.03541 16.1754 9.39077C16.3398 9.74612 16.6367 10.0231 17.0025 10.1625C17.5377 10.3501 18.0096 10.6836 18.365 11.1254C18.7205 11.5672 18.9452 12.0997 19.0138 12.6625C19.0576 13.058 19.2566 13.4199 19.5672 13.6687C19.721 13.7918 19.8976 13.8835 20.0868 13.9384C20.276 13.9933 20.4742 14.0104 20.67 13.9888C20.8659 13.9671 21.0555 13.9071 21.2282 13.8121C21.4008 13.7172 21.553 13.5891 21.6762 13.4353C21.7993 13.2815 21.891 13.105 21.9459 12.9158C22.0008 12.7265 22.018 12.5284 21.9963 12.3325L21.9913 12.335Z" fill="#09637E"/>
</svg>
