<svg width="40" height="40" viewBox="0 0 40 40" fill="none" xmlns="http://www.w3.org/2000/svg">
<path fill-rule="evenodd" clip-rule="evenodd" d="M3.62653 19.2842C3.62653 11.1986 11.1823 5 20.0288 5C28.8753 5 36.4311 11.1986 36.4311 19.2842C36.4311 27.3698 28.8753 33.5684 20.0288 33.5684C18.0672 33.5684 16.1816 33.2686 14.4317 32.7162C12.3676 34.6426 9.36858 35.5686 5.69998 35.7127C4.20555 35.7714 3.1269 34.2171 3.75265 32.8257C4.64037 30.838 5.78737 28.5593 5.92338 26.5718C4.47077 24.4565 3.62653 21.9601 3.62653 19.2842ZM20.0288 7.85714C12.3358 7.85714 6.48368 13.1699 6.48368 19.2842C6.48368 21.4799 7.21887 23.5397 8.5149 25.2851C8.69779 25.5314 8.79654 25.83 8.79654 26.1368C8.79654 28.4707 7.86616 30.6728 6.91878 32.7627C9.85602 32.4507 11.7829 31.5102 12.9449 30.1429C13.3351 29.6837 13.9716 29.5187 14.5357 29.7306C16.2103 30.3595 18.0679 30.7113 20.0288 30.7113C27.7218 30.7113 33.5739 25.3986 33.5739 19.2842C33.5739 13.1699 27.7218 7.85714 20.0288 7.85714Z" fill="#09637E"/>
<circle cx="13" cy="19" r="2" fill="#09637E"/>
<circle cx="20" cy="19" r="2" fill="#09637E"/>
<circle cx="27" cy="19" r="2" fill="#09637E"/>
</svg>
