<svg width="32" height="32" viewBox="0 0 32 32" fill="none" xmlns="http://www.w3.org/2000/svg">
<path d="M16.0053 4C21.1838 4 25.1429 8.33608 25.1429 13.8074L25.1376 15.895C25.1381 16.2462 25.3652 16.6522 25.9812 17.3771C26.0585 17.4682 26.1314 17.5526 26.2906 17.7365C27.5136 19.1516 28 19.9708 28 21.2437C28 21.8163 27.9349 22.2612 27.6635 22.7949C27.0852 23.9325 25.8494 24.5714 24 24.5714L21.0273 24.5722C20.2639 27.1595 18.5284 28.5714 16 28.5714C13.4716 28.5714 11.7361 27.1595 10.9727 24.5722L8 24.5714C6.09695 24.5714 4.84803 23.9152 4.29483 22.7386C4.05488 22.2282 4 21.8142 4 21.2437C4 19.9714 4.48543 19.1522 5.70609 17.7373C5.86504 17.5534 5.93773 17.469 6.01495 17.3779C6.63052 16.6521 6.85714 16.2459 6.85714 15.8939V13.8045C6.85714 8.33796 10.8252 4 16.0053 4ZM18.605 24.5723H13.395C13.9102 25.7636 14.7413 26.2857 16 26.2857C17.2587 26.2857 18.0898 25.7636 18.605 24.5723Z" fill="#09637E"/>
</svg>
