<svg width="32" height="32" viewBox="0 0 32 32" fill="none" xmlns="http://www.w3.org/2000/svg">
<path d="M14 3.5H18C18.2652 3.5 18.5196 3.60536 18.7071 3.79289C18.8946 3.98043 19 4.23478 19 4.5V25.5H21V14.5C21 14.2348 21.1054 13.9804 21.2929 13.7929C21.4804 13.6054 21.7348 13.5 22 13.5H25C25.2652 13.5 25.5196 13.6054 25.7071 13.7929C25.8946 13.9804 26 14.2348 26 14.5V25.5H27C27.2652 25.5 27.5196 25.6054 27.7071 25.7929C27.8946 25.9804 28 26.2348 28 26.5C28 26.7652 27.8946 27.0196 27.7071 27.2071C27.5196 27.3946 27.2652 27.5 27 27.5H5C4.73478 27.5 4.48043 27.3946 4.29289 27.2071C4.10536 27.0196 4 26.7652 4 26.5C4 26.2348 4.10536 25.9804 4.29289 25.7929C4.48043 25.6054 4.73478 25.5 5 25.5H6L6 10.5C6 10.2348 6.10536 9.98043 6.29289 9.79289C6.48043 9.60536 6.73478 9.5 7 9.5H10C10.2652 9.5 10.5196 9.60536 10.7071 9.79289C10.8946 9.98043 11 10.2348 11 10.5V25.5H13L13 4.5C13 4.23478 13.1054 3.98043 13.2929 3.79289C13.4804 3.60536 13.7348 3.5 14 3.5Z" fill="#99A2AD"/>
</svg>
