<svg width="32" height="32" viewBox="0 0 32 32" fill="none" xmlns="http://www.w3.org/2000/svg">
<path d="M9.41112 17.573C14.4297 17.573 18.8222 19.509 18.8222 23.766C18.8222 25.999 17.9547 27 16.1318 27H2.69046C0.856555 27 0 25.999 0 23.766C0 19.509 4.39259 17.573 9.41112 17.573ZM19.0528 18.904C18.965 18.211 19.4482 17.584 20.14 17.496C20.8428 17.408 21.8531 17.353 22.5889 17.408C27.5855 17.826 32 19.509 32 23.766C32 25.999 31.1325 27 29.3095 27H21.9629C21.2711 27 20.7111 26.439 20.7111 25.746L20.766 23.931C20.7879 22.974 20.6452 22.028 20.3377 21.137C20.1949 20.719 19.9753 20.345 19.7447 19.971L19.0638 18.904H19.0528ZM22.5889 5C25.5319 5 27.9259 7.387 27.9259 10.346C27.9259 13.305 25.5429 15.692 22.5889 15.692C19.6349 15.692 17.2519 13.305 17.2519 10.346C17.2519 7.387 19.6458 5 22.5889 5ZM9.41112 5C12.3542 5 14.7481 7.387 14.7481 10.346C14.7481 13.305 12.3651 15.692 9.41112 15.692C6.4571 15.692 4.07413 13.294 4.07413 10.346C4.07413 7.398 6.46808 5 9.41112 5Z" fill="#09637E"/>
</svg>
