<svg width="32" height="32" viewBox="0 0 32 32" fill="none" xmlns="http://www.w3.org/2000/svg">
<path d="M10 4.25012H15.75V7.75012H10C9.40326 7.75012 8.83114 7.98734 8.40918 8.4093C7.98726 8.83125 7.75 9.40341 7.75 10.0001V22.0001C7.75003 22.5968 7.98725 23.169 8.40918 23.5909C8.83113 24.0129 9.40329 24.2501 10 24.2501H22C22.5967 24.2501 23.1689 24.0129 23.5908 23.5909C24.0127 23.169 24.25 22.5968 24.25 22.0001V16.2501H27.75V22.0001C27.75 23.5251 27.1437 24.9872 26.0654 26.0656C24.9871 27.1438 23.525 27.7501 22 27.7501H10C8.47503 27.7501 7.0129 27.1438 5.93457 26.0656C4.85627 24.9872 4.25003 23.5251 4.25 22.0001V10.0001C4.25 8.47513 4.85624 7.01205 5.93457 5.93372C7.01286 4.85565 8.47521 4.25012 10 4.25012ZM26.4775 2.30188C27.0159 2.19765 27.5736 2.25699 28.0781 2.4718C28.5826 2.68662 29.0116 3.04768 29.3096 3.50793C29.6063 3.96643 29.7593 4.503 29.75 5.04895C29.7193 5.73956 29.4317 6.39368 28.9434 6.88293L28.9424 6.88391L18.165 17.7804L12.3857 19.6154L14.2197 13.8927L25.0566 3.05676C25.4445 2.66922 25.9393 2.40614 26.4775 2.30188Z" fill="#09637E" stroke="white" stroke-width="0.5"/>
</svg>
